<?xml version="1.0" encoding="UTF-8" standalone="no"?>
<svg
   xmlns:dc="http://purl.org/dc/elements/1.1/"
   xmlns:cc="http://creativecommons.org/ns#"
   xmlns:rdf="http://www.w3.org/1999/02/22-rdf-syntax-ns#"
   xmlns:svg="http://www.w3.org/2000/svg"
   xmlns="http://www.w3.org/2000/svg"
   viewBox="0 0 3632.04 3632.04"
   height="3632.04"
   width="3632.04"
   xml:space="preserve"
   id="svg2"
   version="1.1"><metadata
     id="metadata8"><rdf:RDF><cc:Work
         rdf:about=""><dc:format>image/svg+xml</dc:format><dc:type
           rdf:resource="http://purl.org/dc/dcmitype/StillImage" /></cc:Work></rdf:RDF></metadata><defs
     id="defs6" /><g
     transform="matrix(1.3333333,0,0,-1.3333333,0,3632.04)"
     id="g10"><g
       transform="scale(0.1)"
       id="g12"><g
         transform="scale(1.67117)"
         id="g14"><path
           id="path16"
           style="fill:#ffffff;fill-opacity:1;fill-rule:nonzero;stroke:none"
           d="M 0,16300.2 H 16300.2 V 0 H 0 v 16300.2" /></g><g
         transform="scale(1.26574)"
         id="g18"><path
           id="path20"
           style="fill:#373944;fill-opacity:1;fill-rule:nonzero;stroke:none"
           d="m 13318.1,16042.5 c 783.3,257.5 1726.1,-66 2180.6,-755.5 60.1,-73.1 21.1,-169 -71.3,-182.4 436.3,-448.1 560.9,-1216.1 217.7,-1740.2 -58,-737.7 -800.7,-1281.8 -1519.5,-1202.6 -3.1,-130.5 -16.2,-260.4 -25.2,-390.7 567.8,109.7 1145,163.5 1721.5,200.9 128.6,5.7 194.8,-155.7 118.7,-252.4 -330.2,-567.9 -404.3,-1247.8 -767.3,-1799.02 -213.5,-336.09 -544.8,-585.98 -910.4,-736.01 155.7,-459.89 40.3,-955.25 -160.6,-1381.24 695.7,-513.06 739.1,-1680.52 96.6,-2253.62 -453.7,-384.2 -1086.5,-416.75 -1653.5,-398.74 -187.9,-2.06 -351.1,95.83 -503.6,188.35 -700.5,-53.57 -1407.9,-58.47 -2105.65,34.21 -98.84,27.97 -154.7,-73.56 -229.75,-116.22 -221.3,-149.4 -500.82,-112.82 -753.23,-108.87 -485.49,29.23 -996.65,105.79 -1400.57,397.63 -538.45,399.77 -678.21,1212.49 -337.53,1782.52 216.48,384.75 624.83,642.23 1062.6,686.39 -19.51,105.24 -162.43,123.09 -215.45,212.84 -323.85,360.5 -210.77,905.87 12.41,1288.57 207.62,374.09 511.79,683.11 836.5,956.91 -629.03,232 -1136.59,804.7 -1206.17,1483.4 -685.34,-79.2 -1404.76,327 -1595.8,1008.1 -139.13,-5.4 -184.3,144 -234.12,245.7 -196.08,480.7 -120.84,1058.6 178.22,1480.9 -192.53,-99.6 -272.18,95.4 -148.8,231.4 412.78,736.2 1309.77,1177.1 2143.94,1026.4 454.36,-80.5 815.41,-429.8 980.61,-850.5 155.72,143.5 336.48,254.3 515.35,365.2 179.02,187.3 359,398.3 614.14,480.7 112.4,30.7 163,-99.8 185.2,-185.6 329.9,137.5 685.3,281.4 1048.7,237.7 170,-97.1 -37.9,-243.3 -127,-313.3 448.5,-71.7 884.2,-231.2 1258.7,-490.8 113.9,386.3 411.3,717.1 794,849.9" /></g><g
         transform="scale(1.24227)"
         id="g22"><path
           id="path24"
           style="fill:#b6b2b1;fill-opacity:1;fill-rule:nonzero;stroke:none"
           d="m 12829.5,15257.8 c 103.6,561.3 589.5,1042.2 1178.9,1034.3 -252.2,-129.6 -490.4,-325.9 -573.1,-607.8 -109.9,-316.6 -14.6,-652 104.9,-950.5 161.9,276.7 457.2,529.8 800.7,443.5 473.2,-113.7 628.3,-679.5 588.8,-1108.2 -7.2,-421.6 -281.1,-922.7 -758.3,-904.8 -67.3,275 -186.5,532.9 -301.2,790.5 -87.2,338.3 124.9,817.8 520.4,807.9 190.1,-2.3 281.3,-188.4 326.1,-346.5 13.7,0.5 41.5,1.5 55.3,2.2 23.7,248.8 -223.4,468.7 -468.6,424.8 -325.7,-38.5 -522.1,-367.9 -547.6,-671.3 -105.7,167.7 -209.6,336.8 -333,492.5 -23.5,-5.8 -47.2,-11.6 -70.6,-17.1 -152.5,220.8 -340.2,414.8 -522.7,610.5" /></g><g
         transform="scale(1.24521)"
         id="g26"><path
           id="path28"
           style="fill:#e6edec;fill-opacity:1;fill-rule:nonzero;stroke:none"
           d="m 13975.3,16253.6 c 617.3,46.4 1291.3,-226.4 1628.9,-759.7 -82.9,-7.2 -166.2,-14.5 -247.6,-33.1 529.6,-359.5 765.5,-1081.8 517.4,-1678.2 -35.4,24.5 -70.9,49.1 -106.8,72.4 124.8,-846.7 -763.5,-1523.2 -1559.7,-1342.9 2.8,-189.3 26.2,-382.8 -21.8,-568.8 -225.2,-56.6 -446.3,-127.2 -662.5,-212 -485.6,-133 -946.6,-442.3 -1174.4,-902.5 -340.2,-217.4 -779.5,-306.3 -1182.8,-301.6 -250.6,96.9 -510.4,167.7 -762.3,262.1 -129.2,39.9 -267.2,164.7 -404.2,82.5 -118.29,-83.5 -47.22,-240.8 -51.24,-359.4 -136.12,15.8 -273.2,47.2 -397.6,104.5 -556.93,292.7 -1111.05,757.5 -1152.09,1433.5 -73.08,585 10.04,1189.9 -134.6,1764.6 91.23,227.3 215.79,439 342.27,648.2 -23.77,16.2 -47.22,32.4 -70.1,49.1 -243.34,261.9 -606.94,454.2 -969.89,332.9 -885.51,-322.2 -674.89,-1985.5 310.62,-1975.5 3.2,-13.5 9.6,-40.4 13.02,-53.7 -11.1,-94.8 -23.7,-190.9 -8.11,-286 13.66,-63.2 8.96,-165.1 -82.68,-146.7 -559.93,10.4 -978.23,496 -1200.83,967.5 -347.79,672.7 -208.29,1521.9 281.35,2086.5 -172.39,17.3 -346.51,12.6 -518.06,-11.5 431.54,503.1 1138.25,766.1 1792.39,652.9 477.27,-85 862.67,-495.2 932.69,-972.7 218.6,180.9 441.61,358.5 690.73,496.3 182.22,168.3 342.03,383.2 583.63,469.1 10.6,-116.4 -39.7,-223.9 -63.2,-335.2 357.6,209.4 757.1,382.4 1177.5,393.3 -113.5,-89.7 -231.4,-175 -331.1,-280.7 592.8,-60.3 1187.6,-245.9 1655,-627 182,-195.3 369.3,-388.8 521.5,-609.1 357.4,-510.6 648.6,-1073.7 788.5,-1684.5 116.4,-31.2 38.7,144 28.8,205.1 476,-17.9 749.3,482 756.5,902.6 39.3,427.7 -115.3,992.1 -587.5,1105.6 -342.6,86 -637.3,-166.4 -798.8,-442.5 -119.2,297.8 -214.2,632.4 -104.6,948.3 82.5,281.2 320.2,477.1 571.7,606.3" /></g><g
         transform="scale(1.18063)"
         id="g30"><path
           id="path32"
           style="fill:#b6b2b1;fill-opacity:1;fill-rule:nonzero;stroke:none"
           d="m 6709.53,16269.6 c 180.94,25.4 364.58,30.4 546.4,12.1 -516.43,-595.5 -663.55,-1491.1 -296.74,-2200.6 234.77,-497.3 675.95,-1009.5 1266.51,-1020.5 96.66,-19.4 101.61,88.1 87.21,154.8 15.78,5.8 47.3,18 63.07,23.9 48.24,456.9 139.46,914.6 340.03,1331.4 152.54,-606.2 64.87,-1244.2 141.95,-1861.2 43.29,-712.9 627.72,-1203.1 1215.14,-1511.9 -862.27,167 -1675.92,849.8 -1696.65,1780.3 -801.69,-180.3 -1668.04,383.1 -1756.59,1215.6 -39.42,-42.6 -80.22,-84 -125.04,-121 -349.02,605 -143.09,1369.9 291.1,1873.5 -117.84,-11 -232.53,-41.2 -348.8,-61.5 70.99,139.9 157.73,277.4 272.41,385.1" /></g><g
         transform="scale(1.14334)"
         id="g34"><path
           id="path36"
           style="fill:#b6b2b1;fill-opacity:1;fill-rule:nonzero;stroke:none"
           d="m 8240.4,16167.8 c 395.28,132.2 791.28,-77.2 1056.29,-362.4 -95.16,-166.4 -196.35,-329.3 -284.08,-499.8 -87.98,329 -392.97,632.1 -752.9,592.1 -259.66,-18.4 -461.64,-258.3 -463.72,-513 28.14,-2.1 56.54,-4.2 84.93,-6.3 26.99,232.4 224.98,441.3 471.86,406.2 350.38,-30.2 619.78,-419.2 536.95,-757.5 -139.77,-343.5 -248.69,-700.9 -296.86,-1069.2 -3.72,14.5 -10.7,43.8 -14.18,58.5 -1073.31,-11 -1302.7,1800.6 -338.29,2151.4" /></g><g
         transform="scale(1.13459)"
         id="g38"><path
           id="path40"
           style="fill:#373944;fill-opacity:1;fill-rule:nonzero;stroke:none"
           d="m 15061.3,15516.9 c 28,332.2 243,692.8 599.6,735 268.4,48.1 539,-192.7 513,-465.1 -15.1,-0.7 -45.5,-1.9 -60.5,-2.4 -49.1,173 -148.9,376.8 -357.1,379.4 -433,10.8 -665.2,-514.2 -569.7,-884.7 125.6,-282 256,-564.3 329.8,-865.4 10.8,-67 96.2,-259.3 -31.6,-225 -153.6,670.3 -473.2,1288.3 -865.4,1848.7 25.6,6.1 51.6,12.4 77.3,18.8 135.1,-170.5 248.8,-355.7 364.6,-539.3" /></g><g
         transform="scale(1.11793)"
         id="g42"><path
           id="path44"
           style="fill:#373944;fill-opacity:1;fill-rule:nonzero;stroke:none"
           d="m 7973.19,15734.4 c 2.13,260.5 208.7,505.9 474.27,524.6 368.11,41 680.03,-269 770.01,-605.5 89.72,174.4 193.22,341 290.54,511.1 25.5,-18.6 51.61,-36.7 78.09,-54.7 -140.88,-233 -279.62,-468.8 -381.24,-722 -211.82,-440.2 -308.15,-923.5 -359.09,-1406.1 -16.66,-6.2 -49.95,-19 -66.61,-25.2 -17.36,105.9 -3.33,213 9.03,318.6 49.26,376.7 160.66,742.2 303.61,1093.5 84.71,345.9 -190.81,743.8 -549.16,774.7 -252.49,35.9 -454.98,-177.7 -482.58,-415.4 -29.04,2.1 -58.08,4.2 -86.87,6.4" /></g><g
         transform="scale(1.08707)"
         id="g46"><path
           id="path48"
           style="fill:#373944;fill-opacity:1;fill-rule:nonzero;stroke:none"
           d="m 14154.1,16003.7 c 173.1,296.3 620.6,23.2 576.8,-265.3 -15.4,0.4 -46.3,2 -61.6,2.6 -49.4,211.5 -277.6,412.7 -473.6,221.5 -10.5,10.3 -31.1,30.9 -41.6,41.2" /></g><g
         transform="scale(1.0801)"
         id="g50"><path
           id="path52"
           style="fill:#373944;fill-opacity:1;fill-rule:nonzero;stroke:none"
           d="m 10469,15666.8 c -44,308.1 465.5,633.2 591.5,289.4 -244.4,153.7 -483.5,-51 -517.8,-302.2 -18.5,3.2 -55.4,9.6 -73.7,12.8" /></g><g
         transform="scale(1.03431)"
         id="g54"><path
           id="path56"
           style="fill:#373944;fill-opacity:1;fill-rule:nonzero;stroke:none"
           d="m 14985.7,16083.4 c 512.6,216.6 874.2,-570.4 511.8,-914 -59.6,-47.6 -127.8,-82.6 -194.9,-118.1 -612.9,-168 -866,808.9 -316.9,1032.1" /></g><g
         transform="scale(1.01957)"
         id="g58"><path
           id="path60"
           style="fill:#373944;fill-opacity:1;fill-rule:nonzero;stroke:none"
           d="m 11463.5,16190.1 c 430.2,109.9 702.6,-461.8 519.4,-803.6 -102.2,-272.7 -473.1,-370.2 -701.1,-194.1 -339.9,256.5 -237.3,886.3 181.7,997.7" /></g><g
         transform="scale(1.01409)"
         id="g62"><path
           id="path64"
           style="fill:#ffffff;fill-opacity:1;fill-rule:nonzero;stroke:none"
           d="m 15567.6,16250.7 c 189.1,49.3 271.5,-268.1 77.4,-313.5 -209.3,-82.1 -304.1,288.8 -77.4,313.5" /></g><g
         transform="scale(1.00454)"
         id="g66"><path
           id="path68"
           style="fill:#ffffff;fill-opacity:1;fill-rule:nonzero;stroke:none"
           d="m 11846.8,16251.5 c 199.7,48.5 276.5,-277.2 69.1,-313.3 -212.6,-65.4 -282.8,279.4 -69.1,313.3" /></g><path
         id="path70"
         style="fill:#373944;fill-opacity:1;fill-rule:nonzero;stroke:none"
         d="m 13745.2,16213 c 666.6,85.1 1119.9,-830.5 609.4,-1288 -261.5,-273.2 -720.1,-301.2 -1021.5,-78.2 -583.1,375.6 -264.9,1357.7 412.1,1366.2" /><g
         transform="scale(1.01696)"
         id="g72"><path
           id="path74"
           style="fill:#dad3cc;fill-opacity:1;fill-rule:nonzero;stroke:none"
           d="m 15563.7,15308.1 c 68.2,36.1 137.6,71.7 198.2,120.1 246,-10.8 485,-181.3 503.3,-440.1 34.8,-281.1 -264.7,-559.8 -541.4,-443.3 -316.9,98.1 -370.9,535.2 -160.1,763.3" /></g><path
         id="path76"
         style="fill:#dad3cc;fill-opacity:1;fill-rule:nonzero;stroke:none"
         d="m 11234.8,15471.9 c 341.8,90.2 605.4,-355.7 459.6,-644.8 -104.5,-260.2 -480.4,-346.7 -675.4,-137.6 -258.3,233.9 -133.5,721.7 215.8,782.4" /><g
         transform="scale(1.22932)"
         id="g78"><path
           id="path80"
           style="fill:#9fd26d;fill-opacity:1;fill-rule:nonzero;stroke:none"
           d="m 13158.7,11422.8 c 901.1,659.2 2074,671 3141.3,760.7 -356.2,-641 -432.8,-1411.2 -877.1,-2005.8 -343.2,-442.72 -874.7,-692.45 -1407.4,-823.41 -103.7,-39.38 -193.2,45.22 -291.3,64.74 -362.9,116.82 -835.9,-17.32 -972.3,-402.9 -153.8,-88.1 -349.2,-90.7 -516.9,-152.85 -449.3,-454.8 -462.9,-1122 -604.8,-1710.54 -8.7,-102.17 -139.9,-105.83 -154.1,-4.39 9,467.9 313.4,940.92 114.7,1402.24 -9.5,39.61 -17.8,79.47 -29.8,117.95 19.8,13.67 40.1,26.84 60.5,39.86 -254.5,632.06 -635.3,1226.53 -1113.2,1711.4 152,-265.9 349.7,-503.09 517.6,-759.49 -28.5,9.76 -56.7,18.79 -84.7,28.14 -10,-49.62 -19.7,-99.32 -33.1,-148.21 34.8,416.98 -444.7,544.86 -774.1,506.26 44.6,292.1 63.2,586.5 59.3,881.3 299.9,-78.2 569.6,-258.6 860.8,-370.3 753.2,-391.5 954.1,-1356.88 739.7,-2118.52 102.9,300.33 464.4,549.82 442.2,918.4 82.5,755.42 293.9,1577.32 922.7,2065.42" /></g><path
         id="path82"
         style="fill:#dad3cc;fill-opacity:1;fill-rule:nonzero;stroke:none"
         d="m 13333.1,14846.8 c 301.4,-223 760,-195 1021.5,78.2 -15.7,-70.5 6.9,-136.8 51.6,-191.6 49.2,-384.4 -221.6,-837.4 -654.6,-765.9 -349.9,27.7 -517.7,400.7 -523.8,711.9 15.9,65.7 63,117.1 105.3,167.4" /><g
         transform="scale(1.20972)"
         id="g84"><path
           id="path86"
           style="fill:#87bc53;fill-opacity:1;fill-rule:nonzero;stroke:none"
           d="m 15522.6,12186.2 c 256.6,42.1 516.8,67.6 777.4,64.9 -160.5,-352.9 -203.7,-753.5 -387,-1093.5 -510.4,-198.8 -1050.1,-325.7 -1581.4,-461.6 -88.1,-13.4 -189.7,-57.7 -271.8,-4.2 583.5,546.4 1233.3,1033.1 1960,1372.2 43.8,12.8 28.8,63.4 35.4,97.2 -216.8,-34.7 -395.6,-180.3 -591.1,-272 -39.1,-6.8 -78,0.8 -116.3,7.2 73.9,73.9 174.8,114.6 241.2,197.1 -22.1,31 -44.1,62 -66.4,92.7" /></g><path
         id="path88"
         style="fill:#373944;fill-opacity:1;fill-rule:nonzero;stroke:none"
         d="m 14406.2,14733.4 c 179.9,89.7 197.4,-163.1 159.4,-278.2 -39.4,-412.4 -446.9,-748.6 -861.9,-667.2 -391.3,61.7 -658.7,462.6 -646.2,843.5 4,88.6 115.2,97.9 170.3,47.9 6.1,-311.2 173.9,-684.2 523.8,-711.9 433,-71.5 703.8,381.5 654.6,765.9" /><g
         transform="scale(1.19217)"
         id="g90"><path
           id="path92"
           style="fill:#373944;fill-opacity:1;fill-rule:nonzero;stroke:none"
           d="m 15691.7,12064.2 c 198.4,93 379.8,240.7 599.8,276 -6.7,-34.3 8.5,-85.7 -35.9,-98.7 -737.5,-344.1 -1396.8,-837.9 -1988.9,-1392.3 -454.9,-406.3 -847,-877.65 -1230.1,-1350.48 -21.6,-29.45 -62,-8.48 -91.2,-9.99 -4.6,52.18 31.6,91.94 60.2,130.69 746.9,958.88 1633.8,1826.38 2686.1,2444.78" /></g><g
         transform="scale(1.03309)"
         id="g94"><path
           id="path96"
           style="fill:#b6b2b1;fill-opacity:1;fill-rule:nonzero;stroke:none"
           d="m 14884.4,13052.4 c 274.6,554.6 830.3,927.5 1415.6,1087.7 -593.9,-291.6 -1135.9,-719.8 -1435.1,-1322.6 -460.7,-163.3 -957.9,-233.1 -1445.6,-243.6 -279.6,170.4 -603.8,255.4 -879.4,430.8 303.7,-113.8 616.8,-199.1 918.8,-315.9 486.1,-5.7 1015.6,101.4 1425.7,363.6" /></g><path
         id="path98"
         style="fill:#b6b2b1;fill-opacity:1;fill-rule:nonzero;stroke:none"
         d="m 10815.3,12544.6 c 188.8,241.3 424.8,458.1 678.6,626 296,-82 590,-176.4 890.1,-246.1 -25.6,-193.4 -34.4,-388.1 -47.4,-582.8 -19.1,1.5 -57.2,4.2 -76.3,5.8 3.2,75.8 -1.6,151.6 -8.8,226.9 -466.9,150.9 -977.6,150.9 -1436.2,-29.8" /><path
         id="path100"
         style="fill:#b6b2b1;fill-opacity:1;fill-rule:nonzero;stroke:none"
         d="m 14034.6,12826.6 c 420.6,39.4 839.6,115.7 1252.7,210.2 -183.8,-377.5 -237,-800 -333.1,-1203.8 -27.9,280.1 57,550.4 96.6,824.4 -229,-26.9 -456.5,-67 -686.6,-87 327,-370.8 407,-864 524.9,-1324.2 -31.9,-121.1 -121.1,-219.5 -197.2,-316.6 93.1,690.6 -148.1,1417.4 -657.3,1897" /><path
         id="path102"
         style="fill:#373944;fill-opacity:1;fill-rule:nonzero;stroke:none"
         d="m 12918.1,12809.3 c 587.4,-596.1 1055.6,-1326.9 1368.4,-2103.9 -25,-16 -50,-32.2 -74.4,-49 -184.9,423.8 -391.1,840.7 -657.7,1219.2 -206.4,315.2 -449.5,606.8 -636.3,933.7" /><path
         id="path104"
         style="fill:#e6edec;fill-opacity:1;fill-rule:nonzero;stroke:none"
         d="m 10815.3,12544.6 c 458.6,180.7 969.3,180.7 1436.2,29.8 7.2,-75.3 12,-151.1 8.8,-226.9 l -0.6,-20.5 c -409.9,-81.9 -968.6,-302.7 -1032.4,-754.4 17.6,0.8 52.9,2.1 70.5,2.9 284.6,410 806.1,580 1284.3,607.9 302.5,30.3 735.3,-134.6 632.9,-513.7 -160.1,157.2 -392.1,255.6 -613.4,168.4 351.4,-37.3 630.7,-392.1 451.1,-735.3 -215.7,-179.3 -473.7,147.1 -716.6,100.6 84.9,-104.3 217.3,-151.7 312.6,-245 -237.3,-184.9 -534.7,-324.1 -835.1,-204.1 -548,-358.1 -1339.6,-144.4 -1679.6,404.6 19.1,525.7 330.1,1012.5 681.3,1385.7" /><path
         id="path106"
         style="fill:#e6edec;fill-opacity:1;fill-rule:nonzero;stroke:none"
         d="m 14364.2,12570.4 c 230.1,20 457.6,60.1 686.6,87 -39.6,-274 -124.5,-544.3 -96.6,-824.4 -26,-195 -12.7,-395.8 -65.1,-586.8 -117.9,460.2 -197.9,953.4 -524.9,1324.2" /><path
         id="path108"
         style="fill:#87bc53;fill-opacity:1;fill-rule:nonzero;stroke:none"
         d="m 13450.2,11910.2 c 34.5,-11.5 69.1,-22.6 104.2,-34.6 266.6,-378.5 472.8,-795.4 657.7,-1219.2 14.8,-47.3 25,-96.3 36.7,-145 -489,-108.5 -1050,-0.2 -1431.2,332.6 271.6,-26.9 495.3,212.8 442.9,482 -62,168.6 124.8,249.5 149,402 16.5,60.1 28.4,121.2 40.7,182.2" /><g
         transform="scale(1.10016)"
         id="g110"><path
           id="path112"
           style="fill:#b6b2b1;fill-opacity:1;fill-rule:nonzero;stroke:none"
           d="m 15662.6,10345.4 c 198,38.5 391.7,94.3 585.9,148.3 24,-47.9 39.1,-99.5 51.5,-151.7 -182.6,-48.6 -372.9,-49.3 -558.6,-78.3 -41.6,1.9 -54.9,54.9 -78.8,81.7" /></g><g
         transform="scale(1.10639)"
         id="g114"><path
           id="path116"
           style="fill:#e6edec;fill-opacity:1;fill-rule:nonzero;stroke:none"
           d="m 14333.7,9807.19 c -126.4,519.81 670.4,749.41 1045.5,498.91 101.8,-32.4 310.6,-352.76 273.6,-100.2 184.6,28.8 373.8,29.5 555.4,77.9 91.8,-437.66 -18.3,-898.07 -240.3,-1280.13 -203.1,64.9 -420,63.91 -625.8,13.93 61.7,71.67 122.6,147.14 150,239.51 -176.7,-156.82 -444.1,-317.43 -670.3,-157.54 -154.4,131.33 83.7,257.05 139.7,375.55 -202,-25.22 -443.6,-275.49 -623,-88.22 -26.9,214.21 219.5,317.43 357.1,435.92 -120.9,19.44 -242.4,4.34 -361.9,-15.63" /></g><path
         id="path118"
         style="fill:#b6b2b1;fill-opacity:1;fill-rule:nonzero;stroke:none"
         d="m 10134,11158.9 c 340,-549 1131.6,-762.7 1679.6,-404.6 300.4,-120 597.8,19.2 835.1,204.1 l 17.8,11.7 c 61.4,-345.3 -463.9,-367.4 -705.2,-320.6 -361.8,-358.3 -954.5,-439.2 -1428.8,-278.2 -290.3,135.1 -440.6,478.5 -398.5,787.6" /><g
         transform="scale(1.00242)"
         id="g120"><path
           id="path122"
           style="fill:#b6b2b1;fill-opacity:1;fill-rule:nonzero;stroke:none"
           d="m 15167.9,10804.6 c 147.6,46.7 299.3,79.3 452.2,103.4 6.6,-105 68.2,-183.6 168.2,-215.4 -263.4,-254.5 -10.8,-673.5 341.3,-558.9 39.3,-89.2 97.2,-168.58 170.4,-233.33 -1086.5,-496.5 -1533.4,-1908.59 -1197.6,-2998.45 -864.1,-48.79 -1734.8,-59.16 -2594.4,54.67 17,59.65 34.8,118.91 52.8,177.77 l 17.6,-1.6 c 753.9,-109.03 1516.6,-218.17 2280.3,-153.63 -338.6,950.31 -54.9,2132.35 739.4,2775.29 -220.9,162.21 -276.8,454.58 -173.3,700.58 -128.2,80.4 -254.8,183.7 -256.9,349.6" /></g><path
         id="path124"
         style="fill:#e6edec;fill-opacity:1;fill-rule:nonzero;stroke:none"
         d="m 14854.5,10472.1 c 92,138 147.1,362.3 350.1,358.6 2.1,-166.3 129,-269.8 257.5,-350.4 -103.8,-246.6 -47.7,-539.7 173.7,-702.3 -796.2,-644.5 -1080.6,-1829.4 -741.2,-2782 -765.5,-64.7 -1530.1,44.7 -2285.8,154 150.3,1104.5 -302.3,2369.2 -1373.8,2846.7 458.6,111.7 976,-67.6 1408.9,186.2 189.1,76.9 258,273.7 377.7,419.8 349,-195.8 763.5,-248.7 1156.4,-193.7 233,-544.3 -193.4,-1108.7 -140.2,-1666 18.1,-144.5 223.5,-208.1 297.4,-70.5 234.4,579.6 144.7,1274.2 519.3,1799.6" /><path
         id="path126"
         style="fill:#b6b2b1;fill-opacity:1;fill-rule:nonzero;stroke:none"
         d="m 12034.2,10474.2 c 286.2,-60.7 578.8,48.4 782.3,251.9 68.4,-40.7 137,-81.7 205.1,-123.4 -119.7,-146.1 -188.6,-342.9 -377.7,-419.8 -432.9,-253.8 -950.3,-74.5 -1408.9,-186.2 -168.9,50.8 -368.4,64.1 -524.3,142.1 460,-40.8 967,10.3 1323.5,335.4" /><path
         id="path128"
         style="fill:#e6edec;fill-opacity:1;fill-rule:nonzero;stroke:none"
         d="m 9389.4,9342.3 c 558.35,841.7 1866.7,769 2477.7,22.9 519.5,-564 695.1,-1382.3 607.1,-2128.4 -35.7,-362.6 -412.7,-609 -759.5,-557.1 -235.7,106.7 -450.1,257.8 -627.8,445.9 220.2,-29.6 476.4,107.4 476.7,351.6 29.2,592.2 -513.7,1036.7 -1037,1178.7 49,-174.7 313.9,-183.7 439.5,-313 -105.6,6.9 -235.4,40.7 -301.2,-68.4 -19.4,71.8 -51.3,147.1 -131.6,164.4 -9.1,-175.6 157.5,-414.7 -45.5,-544.3 -253.8,-125.3 -385.7,198.2 -579.14,273.7 -105.6,31.4 -140.47,166.3 -238.62,197.2 -101.08,-222.7 -63.85,-474.6 -68.89,-711.6 -392.92,467.4 -445.58,1136.4 -211.75,1688.4" /><g
         transform="scale(1.13404)"
         id="g130"><path
           id="path132"
           style="fill:#e6edec;fill-opacity:1;fill-rule:nonzero;stroke:none"
           d="m 15016.6,8672.29 c 339.5,98.5 711.3,-62.87 905.8,-349.99 324.9,-466.12 377.6,-1121.74 122.7,-1630.8 -9.6,7.05 -29.1,20.89 -38.7,27.95 -199.4,-148.5 -408.9,-300.26 -659.5,-344.88 101.6,322.39 220.3,680.58 116.6,1015.05 l -5.6,18.52 c -16.6,0.44 -49.5,1.23 -65.9,1.67 -15.8,-93.11 -28.8,-187.91 -63.3,-276.62 -127.7,-47.09 -218,-154.58 -339.2,-213.22 -239.3,40.39 -188,327.94 -141.7,497.34 -28.6,-3.53 -56.8,-7.94 -84.7,-13.14 -13.6,-42.24 -27.7,-84.65 -39.4,-127.6 -58,-192.41 -321.6,-51.14 -472.9,-125.04 160.5,217.89 411.9,327.68 638.9,456.69 17.9,116.13 -150.3,21.87 -206.1,-5.82 -423,-197.79 -839.1,-656.15 -680.8,-1153.23 83.8,-200.96 327.2,-244.61 520.1,-205.46 -174.5,-154.84 -352.8,-388.43 -615.3,-342.05 -342.3,22.57 -577.3,360.84 -541.6,690.19 -25.2,772.2 279.6,1633.55 1000.6,2006.81 197.3,134.13 434.9,7.23 650,73.63" /></g><path
         id="path134"
         style="fill:#b6b2b1;fill-opacity:1;fill-rule:nonzero;stroke:none"
         d="m 9729.64,7095.5 c -737.42,458.3 -900.75,1594 -340.24,2246.8 -233.83,-552 -181.17,-1221 211.75,-1688.4 5.04,237 -32.19,488.9 68.89,711.6 98.15,-30.9 133.02,-165.8 238.62,-197.2 169.94,-525.1 656.24,-904.1 1178.24,-1042.7 177.7,-188.1 392.1,-339.2 627.8,-445.9 -676.5,-21 -1395.6,58.5 -1985.06,415.8" /><g
         transform="scale(1.07584)"
         id="g136"><path
           id="path138"
           style="fill:#373944;fill-opacity:1;fill-rule:nonzero;stroke:none"
           d="m 15477.9,8013.64 c 58.8,29.19 236.1,128.55 217.3,6.14 -239.4,-135.99 -504.4,-251.71 -673.6,-481.39 -212.1,-225.5 -357.3,-780.14 51.5,-874.11 497.5,-3.44 909.4,417.16 1084.8,854.77 36.3,93.51 50.1,193.43 66.7,291.59 17.3,-0.47 52,-1.3 69.5,-1.77 l 5.9,-19.52 c -9.1,-568.95 -478.4,-1030.63 -991.5,-1207.89 -203.3,-41.27 -459.9,4.74 -548.2,216.58 -166.9,523.96 271.8,1007.11 717.6,1215.6" /></g><path
         id="path140"
         style="fill:#373944;fill-opacity:1;fill-rule:nonzero;stroke:none"
         d="m 10526.6,8655.9 c 523.3,-142 1066.2,-586.5 1037,-1178.7 -0.3,-244.2 -256.5,-381.2 -476.7,-351.6 -522,138.6 -1008.3,517.6 -1178.24,1042.7 193.44,-75.5 325.34,-399 579.14,-273.7 203,129.6 36.4,368.7 45.5,544.3 80.3,-17.3 112.2,-92.6 131.6,-164.4 151.9,-334.4 -242.8,-658.4 -514.2,-380.4 198.8,-310.5 522,-538.7 872.6,-645.9 160.7,-57.2 401.1,-19.2 437,177.4 51.7,371.1 -187.2,728.9 -494.2,917.3 -125.6,129.3 -390.5,138.3 -439.5,313" /><g
         transform="scale(1.05018)"
         id="g142"><path
           id="path144"
           style="fill:#373944;fill-opacity:1;fill-rule:nonzero;stroke:none"
           d="m 15941.9,7995.36 c 30.1,5.62 60.5,10.38 91.4,14.19 -49.9,-182.92 -105.3,-493.44 153,-537.05 37.7,-8.85 75.7,-17.42 113.7,-26.85 -261.9,-169.97 -466,178.82 -400.7,411.93 12.7,46.37 27.9,92.17 42.6,137.78" /></g><g
         transform="scale(1.1163)"
         id="g146"><path
           id="path148"
           style="fill:#b6b2b1;fill-opacity:1;fill-rule:nonzero;stroke:none"
           d="m 15709.2,7507.03 c 105.4,-339.78 -15.2,-703.66 -118.4,-1031.18 254.5,45.33 467.3,199.51 669.9,350.36 9.7,-7.17 29.5,-21.23 39.3,-28.4 -376.3,-805.43 -1401.5,-854.52 -2171.5,-802.38 266.7,-47.12 447.9,190.18 625.1,347.49 494.5,170.83 946.8,615.78 955.6,1164.11" /></g><path
         id="path150"
         style="fill:#b6b2b1;fill-opacity:1;fill-rule:nonzero;stroke:none"
         d="m 10664.9,8274.5 c 65.8,109.1 195.6,75.3 301.2,68.4 307,-188.4 545.9,-546.2 494.2,-917.3 -35.9,-196.6 -276.3,-234.6 -437,-177.4 -350.6,107.2 -673.8,335.4 -872.6,645.9 271.4,-278 666.1,46 514.2,380.4" /><g
         transform="scale(1.06646)"
         id="g152"><path
           id="path154"
           style="fill:#b6b2b1;fill-opacity:1;fill-rule:nonzero;stroke:none"
           d="m 15153.8,7604.69 c 160.9,78.58 441.3,-71.63 502.9,132.97 -64.4,-229.55 136.7,-573.02 394.5,-405.65 -37.4,9.29 -74.8,17.73 -111.9,26.45 128.9,62.35 224.9,176.66 360.7,226.73 -176.9,-441.46 -592.4,-865.76 -1094.4,-862.3 -412.3,94.81 -265.8,654.32 -51.8,881.8" /></g><g
         transform="scale(1.28804)"
         id="g156"><path
           id="path158"
           style="fill:#e6edec;fill-opacity:1;fill-rule:nonzero;stroke:none"
           d="m 7421.87,5450.08 c 396.93,-286.8 899.24,-362.03 1376.33,-390.75 248.05,-3.88 522.73,-39.83 740.19,106.98 73.76,41.93 128.65,141.69 225.77,114.21 685.74,-91.07 1380.84,-86.26 2069.24,-33.62 149.9,-90.91 310.2,-187.11 494.8,-185.09 557.2,-17.7 1179.1,14.29 1625,391.84 713.8,-105.59 1461.6,-84.94 2144.4,-341.84 202.4,-119.33 -107.8,-234.85 -223.3,-250.3 -1285.6,-269.33 -2608.6,-275.31 -3915.6,-338.34 -1972.34,-27.02 -3949.46,-11.96 -5910.87,217.07 -295.75,50 -612.37,70.65 -877.98,220.56 -105.94,95.03 70.66,171.43 149.97,192.32 684.02,191.22 1400.04,216.45 2102.05,296.96" /></g></g></g></svg>